<?xml version="1.0" standalone="no"?>
<!DOCTYPE svg PUBLIC "-//W3C//DTD SVG 20010904//EN"
 "http://www.w3.org/TR/2001/REC-SVG-20010904/DTD/svg10.dtd">
<svg version="1.0" xmlns="http://www.w3.org/2000/svg"
 width="212.000000pt" height="212.000000pt" viewBox="0 0 212.000000 212.000000"
 preserveAspectRatio="xMidYMid meet">
<metadata>
Created by potrace 1.11, written by Peter Selinger 2001-2013
</metadata>
<g transform="translate(0.000000,212.000000) scale(0.100000,-0.100000)"
fill="#000000" stroke="none">
<path d="M881 1926 c-12 -12 -19 -25 -15 -28 3 -4 7 -17 9 -30 2 -12 6 -38 10
-55 9 -41 -14 -54 -54 -31 -110 64 -268 54 -364 -24 -37 -29 -42 -30 -96 -23
-75 10 -107 8 -161 -7 -95 -26 -202 -180 -203 -293 -1 -41 7 -69 38 -130 36
-74 39 -85 41 -184 11 -382 22 -471 72 -564 22 -41 102 -121 102 -103 0 4 10
0 23 -8 23 -14 73 -31 117 -40 14 -3 54 -12 90 -21 36 -9 72 -18 80 -20 8 -2
94 -22 190 -45 96 -23 182 -43 190 -45 8 -2 89 -22 180 -45 91 -22 188 -42
216 -44 121 -7 222 49 299 163 25 38 45 71 45 74 0 3 23 45 51 94 28 48 61
106 73 128 87 154 88 156 132 176 23 12 55 36 69 54 32 43 96 191 97 226 1 33
-63 152 -104 196 -17 18 -46 39 -65 48 -18 9 -33 17 -33 18 0 1 8 25 18 52 10
28 18 56 16 63 -1 6 -2 25 -3 41 -2 45 -58 109 -126 145 -43 23 -65 41 -77 66
-28 59 -38 65 -60 42 -16 -16 -18 -23 -9 -41 7 -11 16 -21 21 -21 37 0 62
-111 40 -182 l-12 -41 -20 21 c-12 12 -22 37 -24 63 -6 65 -45 138 -104 197
-59 59 -83 74 -155 91 -27 7 -67 17 -88 22 -44 12 -75 4 -99 -23 -16 -18 -17
-18 -53 6 -49 34 -69 39 -119 32 -29 -5 -55 -18 -80 -40 -20 -19 -39 -30 -42
-24 -3 5 -4 32 -2 60 2 42 0 51 -14 54 -9 1 -26 -8 -37 -20z"/>
</g>
</svg>
